<svg width="187" height="26" viewBox="0 0 187 26" fill="none" xmlns="http://www.w3.org/2000/svg">
<g clip-path="url(#clip0_74_887)">
<path d="M27.1196 1.75806H0V25.8467H27.1196V1.75806Z" fill="black"/>
<path d="M16.4289 7.11597H21.1041V18.0495L18.129 20.4888H9.00738L6.03223 18.0349V7.11597H10.7075V16.7136L11.345 17.2799H15.7913L16.4289 16.7136V7.11597Z" fill="white"/>
<path d="M55.0019 25.8416V1.75293H27.8823V25.8416H55.0019Z" fill="black"/>
<path d="M39.1016 20.4889V10.3249H33.9033V7.11597H48.9752V10.3249H43.7768V20.4889H39.1016Z" fill="white"/>
<path d="M82.8794 1.75806H55.7598V25.8467H82.8794V1.75806Z" fill="black"/>
<path d="M66.4502 16.8298V20.4888H61.7749V7.11597H74.0843L76.8469 9.38108V14.5792L74.0843 16.8443H66.4502V16.8298ZM71.5341 10.3249H66.4502V13.6354H71.5341L72.1717 13.0691V10.8912L71.5341 10.3249Z" fill="white"/>
<path d="M101.269 15.6538C101.269 14.3615 101.531 13.2144 102.005 12.198H96.9375V6.92725H92.8344V12.198H86.9658V15.8425H92.8344V20.9826H96.9375V15.8425H101.286C101.286 15.7844 101.269 15.7264 101.269 15.6538Z" fill="#FF395C"/>
<path d="M110.665 8.59091V19.5H107.703V8.59091H110.665ZM121.507 8.59091V19.5H119.036L115.094 13.7685H115.03V19.5H112.068V8.59091H114.583L118.46 14.3011H118.546V8.59091H121.507ZM122.61 10.9773V8.59091H132.091V10.9773H128.81V19.5H125.891V10.9773H122.61ZM133.206 19.5V8.59091H141.068V10.9773H136.168V12.8523H140.663V15.2386H136.168V17.1136H141.047V19.5H133.206ZM149.622 12.1918C149.575 12.0036 149.503 11.8384 149.403 11.6964C149.304 11.5508 149.18 11.4283 149.03 11.3288C148.885 11.2259 148.714 11.1495 148.519 11.0998C148.327 11.0465 148.116 11.0199 147.885 11.0199C147.388 11.0199 146.964 11.1388 146.612 11.3768C146.264 11.6147 145.998 11.9574 145.813 12.4048C145.632 12.8523 145.541 13.392 145.541 14.0241C145.541 14.6634 145.628 15.2102 145.802 15.6648C145.976 16.1193 146.236 16.4673 146.58 16.7088C146.925 16.9503 147.352 17.071 147.864 17.071C148.315 17.071 148.689 17.0053 148.988 16.8739C149.29 16.7425 149.515 16.5561 149.664 16.3146C149.813 16.0732 149.888 15.7891 149.888 15.4624L150.399 15.5156H147.906V13.4062H152.743V14.919C152.743 15.9134 152.532 16.7638 152.109 17.4705C151.69 18.1737 151.111 18.7134 150.373 19.0898C149.638 19.4627 148.794 19.6491 147.843 19.6491C146.781 19.6491 145.849 19.4237 145.046 18.9727C144.243 18.5217 143.617 17.8789 143.166 17.0444C142.718 16.2099 142.494 15.2173 142.494 14.0668C142.494 13.1648 142.631 12.3658 142.905 11.6697C143.182 10.9737 143.565 10.386 144.055 9.9066C144.545 9.42365 145.112 9.05966 145.754 8.81463C146.397 8.56605 147.086 8.44176 147.821 8.44176C148.468 8.44176 149.068 8.53409 149.622 8.71875C150.179 8.89986 150.671 9.15909 151.097 9.49645C151.527 9.83026 151.873 10.2262 152.136 10.6843C152.399 11.1424 152.558 11.6449 152.615 12.1918H149.622ZM154.124 19.5V8.59091H158.833C159.642 8.59091 160.351 8.73828 160.958 9.03303C161.565 9.32777 162.038 9.75213 162.375 10.3061C162.712 10.8601 162.881 11.5241 162.881 12.2983C162.881 13.0795 162.707 13.7383 162.359 14.2745C162.015 14.8107 161.53 15.2156 160.905 15.489C160.283 15.7624 159.557 15.8991 158.726 15.8991H155.914V13.598H158.13C158.478 13.598 158.774 13.5554 159.019 13.4702C159.268 13.3814 159.458 13.2411 159.589 13.0494C159.724 12.8576 159.792 12.6072 159.792 12.2983C159.792 11.9858 159.724 11.7319 159.589 11.5366C159.458 11.3377 159.268 11.1921 159.019 11.0998C158.774 11.0039 158.478 10.956 158.13 10.956H157.086V19.5H154.124ZM160.516 14.4929L163.243 19.5H160.026L157.363 14.4929H160.516ZM166.977 19.5H163.781L167.382 8.59091H171.43L175.031 19.5H171.835L169.449 11.5952H169.364L166.977 19.5ZM166.381 15.196H172.389V17.4119H166.381V15.196ZM176.082 19.5V8.59091H179.044V17.1136H183.454V19.5H176.082Z" fill="black"/>
</g>
<defs>
<clipPath id="clip0_74_887">
<rect width="187" height="25" fill="white" transform="translate(0 0.5)"/>
</clipPath>
</defs>
</svg>
