<svg data-testid="cc-icon__svg" class="cc-icon" width="16" height="16" viewBox="0 0 1024 1024"><path d="M759.467 89.6c-8.533 0-17.067 0-25.6 8.533l-273.067 157.867h-396.8c-25.6 0-51.2 21.333-51.2 51.2v302.933c4.267 25.6 25.6 42.667 51.2 42.667 0 0 0 0 0 0h51.2v136.533c0 81.067 68.267 149.333 149.333 149.333h8.533c76.8-4.267 140.8-68.267 140.8-149.333v-136.533h51.2l273.067 157.867c8.533 4.267 17.067 8.533 25.6 8.533h4.267c25.6-4.267 42.667-25.6 42.667-51.2v-627.2c0-8.533-4.267-17.067-8.533-25.6-8.533-17.067-25.6-25.6-42.667-25.6zM371.2 571.733c-8.533 4.267-17.067 8.533-21.333 17.067-17.067 17.067-25.6 38.4-25.6 59.733v136.533c0 34.133-25.6 59.733-59.733 64h-4.267c-34.133 0-64-29.867-64-64v-136.533c0-46.933-38.4-85.333-85.333-85.333h-12.8v-226.133h273.067v234.667zM721.067 699.733l-221.867-123.733c-12.8-8.533-25.6-12.8-42.667-12.8h-4.267v-226.133h4.267c12.8 0 29.867-4.267 42.667-12.8l221.867-123.733v499.2zM849.067 307.2c-17.067-17.067-17.067-42.667 0-59.733l55.467-55.467c17.067-17.067 42.667-17.067 59.733 0s17.067 42.667 0 59.733l-55.467 55.467c-8.533 8.533-21.333 12.8-29.867 12.8s-21.333-4.267-29.867-12.8zM964.267 635.733c17.067 17.067 17.067 42.667 0 59.733-8.533 8.533-21.333 12.8-29.867 12.8s-21.333-4.267-29.867-12.8l-55.467-55.467c-17.067-17.067-17.067-42.667 0-59.733s42.667-17.067 59.733 0l55.467 55.467zM1015.467 452.267c0 25.6-17.067 42.667-42.667 42.667h-64c0 0 0 0 0 0-21.333 0-42.667-17.067-42.667-42.667s17.067-42.667 42.667-42.667h64c0 0 0 0 0 0 25.6 0 42.667 17.067 42.667 42.667z"></path></svg>