<svg width="32" height="32" viewBox="0 0 32 32" fill="none" xmlns="http://www.w3.org/2000/svg">
<g clip-path="url(#clip0_83_1200)">
<path d="M28 0H4C1.79086 0 0 1.79086 0 4V28C0 30.2091 1.79086 32 4 32H28C30.2091 32 32 30.2091 32 28V4C32 1.79086 30.2091 0 28 0Z" fill="#E2DFFD"/>
<path d="M18 10.7143L19.7778 12L22 9" stroke="#5B36F2" stroke-width="1.5" stroke-linecap="round" stroke-linejoin="round"/>
<path fill-rule="evenodd" clip-rule="evenodd" d="M22.4465 8.39738C22.7793 8.64393 22.8493 9.11362 22.6027 9.44647L20.3805 12.4465C20.1359 12.7766 19.6712 12.8486 19.3383 12.6078L17.5605 11.3221C17.2249 11.0793 17.1496 10.6105 17.3923 10.2748C17.6351 9.93918 18.1039 9.86387 18.4396 10.1066L19.6165 10.9578L21.3974 8.55363C21.6439 8.22078 22.1136 8.15083 22.4465 8.39738Z" fill="#5B36F2"/>
<path fill-rule="evenodd" clip-rule="evenodd" d="M8.8049 20.7757L9.68915 19.7838L11.9594 21.6757H19.6655V18.1227C19.6655 17.705 19.3894 17.3367 18.9862 17.2167L14.8994 16V11.4734C14.8994 11.4734 15.028 10.3243 13.9462 10.3243C12.8644 10.3243 12.9127 11.4734 12.9127 11.4734V18.8707C12.9127 19.2542 12.4768 19.4783 12.1611 19.257L11.5631 18.8378C11.5631 18.8378 10.3712 17.656 9.65686 18.3649C8.91334 19.1027 9.68915 19.7838 9.68915 19.7838C8.8049 20.7757 8.8039 20.7748 8.8039 20.7748L8.80288 20.7739L8.80078 20.772L8.79633 20.7681L8.78647 20.7592C8.77948 20.7529 8.77165 20.7456 8.76307 20.7376C8.74594 20.7215 8.72562 20.7018 8.70288 20.6787C8.65774 20.6329 8.60108 20.5716 8.53978 20.496C8.42177 20.3504 8.26252 20.1224 8.14749 19.8234C8.02967 19.5172 7.94965 19.1116 8.03682 18.6526C8.12541 18.186 8.36629 17.7727 8.71325 17.4284C9.19361 16.9517 9.78755 16.789 10.3264 16.8172C10.814 16.8428 11.2295 17.0194 11.5103 17.1694C11.5333 17.1816 11.5559 17.194 11.5782 17.2065V11.4855L11.578 11.4745C11.5777 11.4515 11.5778 11.4234 11.5787 11.3909C11.5803 11.3264 11.5849 11.2421 11.5961 11.1439C11.6179 10.9547 11.6685 10.6773 11.7958 10.3804C11.9246 10.08 12.1495 9.72034 12.5377 9.43702C12.939 9.14414 13.4233 9 13.9462 9C14.4678 9 14.9619 9.14398 15.369 9.45711C15.763 9.7601 15.9739 10.1431 16.0857 10.4546C16.1959 10.7618 16.2273 11.0455 16.2358 11.2348C16.2402 11.3337 16.2389 11.4183 16.236 11.4827C16.2354 11.4969 16.2347 11.5102 16.2339 11.5226V15.0147L19.3697 15.9482C20.3373 16.2363 21 17.1202 21 18.1227V21.6757C21 22.4071 20.4025 23 19.6655 23H11.9594C11.6455 23 11.3417 22.8902 11.1013 22.6899L8.83097 20.798C8.82218 20.7906 8.81349 20.7832 8.8049 20.7757Z" fill="#5B36F2"/>
<path fill-rule="evenodd" clip-rule="evenodd" d="M11 22H21V24.2727C21 25.2267 20.2124 26 19.2407 26H12.7593C11.7876 26 11 25.2267 11 24.2727V22ZM12.2963 23.2727V24.2727C12.2963 24.5238 12.5036 24.7273 12.7593 24.7273H19.2407C19.4964 24.7273 19.7037 24.5238 19.7037 24.2727V23.2727H12.2963Z" fill="#5B36F2"/>
<path fill-rule="evenodd" clip-rule="evenodd" d="M10.5 7.5H21.5C23.1569 7.5 24.5 8.84315 24.5 10.5C24.5 12.1569 23.1569 13.5 21.5 13.5H16V15H21.5C23.9853 15 26 12.9853 26 10.5C26 8.01472 23.9853 6 21.5 6H10.5C8.01472 6 6 8.01472 6 10.5C6 12.9853 8.01472 15 10.5 15H12V13.5H10.5C8.84315 13.5 7.5 12.1569 7.5 10.5C7.5 8.84315 8.84315 7.5 10.5 7.5Z" fill="#5B36F2"/>
</g>
<defs>
<clipPath id="clip0_83_1200">
<rect width="32" height="32" fill="white"/>
</clipPath>
</defs>
</svg>
